<?xml version="1.0" standalone="no"?>
<!DOCTYPE svg PUBLIC "-//W3C//DTD SVG 20010904//EN"
 "http://www.w3.org/TR/2001/REC-SVG-20010904/DTD/svg10.dtd">
<svg version="1.0" xmlns="http://www.w3.org/2000/svg"
 width="980.000000pt" height="938.000000pt" viewBox="0 0 980.000000 938.000000"
 preserveAspectRatio="xMidYMid meet">

<g transform="translate(0.000000,938.000000) scale(0.100000,-0.100000)"
fill="#000000" stroke="none">
<path d="M4638 9370 c-634 -54 -1291 -428 -1692 -964 -295 -394 -447 -803
-487 -1306 -16 -206 -16 -207 -110 -297 -145 -139 -222 -298 -276 -568 -25
-128 -25 -509 0 -644 44 -232 123 -395 257 -532 88 -89 139 -122 242 -154 l56
-18 52 -146 c178 -494 407 -875 719 -1195 345 -352 729 -571 1156 -656 138
-28 428 -38 573 -20 455 56 902 293 1270 674 321 332 559 735 742 1252 31 90
32 92 73 104 216 63 381 250 476 538 42 127 55 245 55 502 -1 244 -12 326 -69
497 -50 150 -110 248 -217 356 -109 111 -100 87 -118 307 -29 347 -105 626
-251 920 -240 485 -620 865 -1104 1108 -219 110 -474 192 -703 228 -118 18
-497 26 -644 14z m473 -410 c165 -17 274 -39 418 -86 600 -196 1077 -661 1295
-1264 78 -218 119 -490 114 -769 -3 -151 -1 -180 14 -207 26 -48 71 -80 130
-94 73 -17 111 -42 146 -98 72 -112 112 -302 113 -532 0 -231 -35 -391 -112
-512 -37 -57 -66 -68 -187 -68 -119 0 -146 -14 -181 -92 -16 -35 -55 -137 -86
-228 -137 -393 -258 -649 -423 -885 -272 -392 -638 -677 -1017 -794 -128 -39
-198 -50 -365 -58 -381 -17 -696 86 -1040 340 -107 79 -298 265 -383 374 -146
185 -312 476 -411 719 -24 60 -72 190 -106 289 -99 285 -117 312 -227 335 -40
9 -59 8 -97 -5 -26 -9 -56 -13 -67 -10 -28 9 -84 97 -118 185 -116 298 -79
773 75 975 21 27 41 39 94 55 82 24 127 54 154 100 19 32 21 48 18 213 -6 388
58 686 215 1002 107 214 232 384 410 555 303 293 665 478 1083 554 92 17 398
20 541 6z"/>
<path d="M4715 7734 c-222 -49 -434 -203 -528 -382 -45 -85 -84 -218 -98 -336
-15 -120 -4 -161 56 -214 73 -64 158 -79 235 -39 63 31 106 118 119 239 14
124 50 189 144 261 74 57 167 81 286 74 256 -13 370 -151 371 -448 0 -130 -23
-256 -64 -343 -39 -84 -93 -138 -276 -276 -165 -124 -292 -252 -351 -355 -57
-99 -73 -140 -93 -238 -35 -169 -13 -272 70 -330 78 -54 144 -53 222 3 53 38
67 66 91 188 11 56 30 121 42 144 33 65 121 151 269 261 190 142 232 179 294
260 100 133 160 283 191 481 23 149 17 400 -13 499 -85 279 -276 462 -568 543
-86 23 -309 28 -399 8z"/>
<path d="M4625 4881 c-144 -66 -168 -260 -45 -350 73 -53 162 -51 239 7 37 28
81 112 81 156 0 73 -80 171 -159 194 -52 16 -69 15 -116 -7z"/>
<path d="M2510 3259 c-643 -223 -910 -326 -1098 -424 -559 -292 -988 -769
-1225 -1365 -131 -329 -179 -609 -181 -1065 -1 -269 6 -323 47 -350 80 -52
729 -58 5417 -51 2203 4 4056 9 4118 12 110 6 114 7 146 38 55 51 61 89 60
376 -1 343 -29 551 -110 830 -113 391 -337 773 -639 1089 -225 235 -538 447
-848 575 -376 155 -1231 456 -1294 456 -62 0 -107 -31 -298 -204 -250 -227
-451 -369 -690 -486 -222 -109 -446 -179 -695 -216 -158 -25 -482 -25 -640 0
-507 77 -939 292 -1360 679 -213 195 -260 227 -327 226 -21 0 -189 -53 -383
-120z m377 -366 c26 -20 76 -62 109 -93 275 -255 751 -528 1114 -639 269 -83
482 -113 785 -113 305 -1 476 22 745 99 405 115 849 368 1194 681 129 117 112
113 268 62 357 -114 898 -315 1053 -389 425 -205 780 -563 996 -1006 144 -298
219 -598 244 -992 l7 -103 -4501 0 -4501 0 0 38 c0 68 29 345 45 432 75 398
233 749 475 1055 175 221 464 454 715 575 165 80 1126 426 1192 429 6 1 33
-15 60 -36z"/>
</g>
</svg>
