<?xml version="1.0" standalone="no"?>
<!DOCTYPE svg PUBLIC "-//W3C//DTD SVG 20010904//EN"
 "http://www.w3.org/TR/2001/REC-SVG-20010904/DTD/svg10.dtd">
<svg version="1.0" xmlns="http://www.w3.org/2000/svg"
 width="900.000000pt" height="473.000000pt" viewBox="0 0 900.000000 473.000000"
 preserveAspectRatio="xMidYMid meet">

<g transform="translate(0.000000,473.000000) scale(0.100000,-0.100000)"
fill="#000000" stroke="none">
<path d="M4284 4720 c-212 -22 -422 -71 -604 -140 -813 -307 -1384 -1010
-1517 -1870 -22 -143 -25 -518 -5 -655 61 -420 207 -775 457 -1110 358 -479
898 -809 1490 -910 770 -132 1565 133 2105 702 161 170 295 361 405 581 110
221 184 454 222 702 22 143 25 519 5 655 -101 695 -466 1277 -1042 1660 -296
197 -598 313 -967 370 -118 18 -436 27 -549 15z m637 -269 c890 -186 1548
-884 1685 -1786 23 -150 23 -452 0 -600 -73 -474 -277 -877 -610 -1210 -300
-298 -671 -495 -1096 -580 -183 -37 -483 -46 -674 -20 -952 128 -1693 861
-1831 1810 -24 161 -24 450 -1 600 24 153 40 221 87 365 228 699 828 1248
1539 1409 190 43 272 50 520 46 216 -3 247 -6 381 -34z"/>
<path d="M4258 3690 c-177 -37 -324 -117 -454 -245 -75 -75 -98 -105 -132
-175 -118 -244 -55 -431 152 -447 83 -7 151 15 198 65 20 20 61 87 92 148 30
60 72 129 91 152 120 139 405 149 543 18 55 -51 75 -100 80 -197 8 -153 -38
-221 -282 -418 -201 -162 -253 -216 -302 -317 -61 -122 -58 -243 7 -333 43
-60 103 -86 197 -84 122 2 170 42 228 188 46 117 71 145 262 289 204 153 293
238 356 340 70 113 89 180 90 316 0 139 -18 212 -76 322 -44 82 -128 175 -209
231 -109 75 -273 134 -434 157 -112 16 -308 11 -407 -10z"/>
<path d="M4335 1590 c-193 -75 -246 -335 -98 -483 64 -64 135 -90 228 -85 119
8 214 77 255 184 90 243 -144 476 -385 384z"/>
</g>
</svg>
