<?xml version="1.0" standalone="no"?>
<!DOCTYPE svg PUBLIC "-//W3C//DTD SVG 20010904//EN"
 "http://www.w3.org/TR/2001/REC-SVG-20010904/DTD/svg10.dtd">
<svg version="1.0" xmlns="http://www.w3.org/2000/svg"
 width="860.000000pt" height="900.000000pt" viewBox="0 0 860.000000 900.000000"
 preserveAspectRatio="xMidYMid meet">

<g transform="translate(0.000000,900.000000) scale(0.100000,-0.100000)"
fill="#000000" stroke="none">
<path d="M4055 8580 c-522 -30 -1065 -177 -1537 -416 -398 -202 -717 -433
-1033 -749 -471 -471 -809 -1032 -999 -1655 -347 -1145 -165 -2386 497 -3375
711 -1061 1871 -1718 3134 -1773 1131 -50 2190 357 2992 1151 811 803 1230
1876 1179 3020 -72 1645 -1167 3086 -2735 3603 -474 156 -993 223 -1498 194z
m576 -175 c654 -60 1245 -266 1773 -617 438 -291 790 -641 1076 -1068 427
-638 643 -1350 644 -2120 0 -507 -84 -952 -265 -1407 -267 -671 -717 -1253
-1299 -1680 -52 -38 -100 -72 -106 -76 -6 -4 -57 2 -113 13 -98 19 -214 38
-581 94 -294 45 -373 83 -470 226 -86 126 -106 204 -116 433 l-7 157 114 117
c146 151 265 300 390 488 115 172 254 443 302 590 33 97 34 100 69 107 138 28
313 170 383 308 52 102 80 278 64 403 -21 171 -135 291 -260 274 -39 -5 -39
-5 -39 29 0 18 6 77 14 131 18 118 43 322 51 418 4 39 16 115 27 170 107 539
89 955 -53 1238 -87 171 -248 347 -479 521 -374 283 -773 453 -1210 516 -201
29 -345 25 -505 -15 -165 -42 -420 -204 -713 -452 l-114 -98 -82 -1 c-226 -4
-509 -154 -683 -364 -124 -148 -264 -510 -309 -795 -27 -169 -24 -464 5 -620
37 -193 122 -428 224 -613 16 -30 27 -55 25 -56 -1 -1 -25 -10 -51 -20 -91
-34 -144 -101 -171 -216 -21 -87 -20 -159 3 -280 33 -166 112 -290 248 -387
68 -48 163 -92 200 -93 18 0 25 -10 38 -57 42 -145 151 -374 262 -552 127
-202 254 -366 437 -565 l79 -86 -6 -203 c-6 -239 -16 -281 -99 -409 -54 -83
-112 -140 -174 -171 -47 -24 -173 -54 -329 -77 -283 -42 -581 -91 -619 -101
-35 -10 -42 -8 -90 24 -28 19 -96 69 -151 112 -601 469 -1043 1090 -1284 1801
-125 372 -185 716 -197 1134 -23 774 203 1551 639 2204 518 775 1317 1347
2207 1580 418 109 885 149 1301 111z m-71 -2255 c324 -68 554 -242 679 -512
61 -131 76 -208 76 -383 -1 -142 -2 -154 -31 -231 -98 -263 -294 -481 -638
-709 -159 -106 -160 -107 -166 -302 -5 -148 -6 -152 -35 -194 -47 -66 -91 -84
-207 -84 -91 0 -99 2 -139 30 -23 17 -53 50 -66 74 -22 43 -23 53 -23 277 0
210 2 239 20 288 28 74 79 123 191 183 299 162 509 347 595 528 30 61 34 79
34 148 0 218 -134 373 -367 422 -88 19 -142 19 -222 -1 -123 -30 -237 -103
-346 -222 -52 -56 -123 -87 -174 -76 -128 29 -217 94 -240 176 -25 87 9 158
133 282 161 162 364 270 581 311 89 16 253 14 345 -5z m-177 -2606 c133 -68
157 -235 47 -327 -45 -38 -95 -50 -197 -46 -78 4 -95 8 -131 32 -93 61 -114
182 -49 278 40 60 88 79 200 79 71 0 107 -5 130 -16z"/>
</g>
</svg>
